<?xml version="1.0" encoding="utf-8"?>
<!-- Generator: Adobe Illustrator 26.2.1, SVG Export Plug-In . SVG Version: 6.00 Build 0)  -->
<svg version="1.1" id="Layer_1" xmlns="http://www.w3.org/2000/svg" xmlns:xlink="http://www.w3.org/1999/xlink" x="0px" y="0px"
	 viewBox="0 0 1143 276" style="enable-background:new 0 0 1143 276;" xml:space="preserve">
<style type="text/css">
	.st0{fill:#001C49;stroke:#FFFFFF;stroke-width:2;stroke-miterlimit:10;}

		.st1{clip-path:url(#SVGID_00000129195483483544528180000009122596830306633348_);fill:url(#SVGID_00000067932472038220657280000015489097775376874629_);}

		.st2{clip-path:url(#SVGID_00000171711092019370702520000010862584199084942778_);fill:url(#SVGID_00000003809658368644703680000009611320987712209285_);}
</style>
<g>
	<g>
		<g>
			<g>
				<g>
					<path class="st0" d="M1043.9,153.1l19.1-43.8c2.2-5.4,4.7-12.1,4.7-12.1h0.2c0.2,0,2.5,6.7,4.7,12.1l19.3,43.8H1043.9z
						 M1108.6,191.1h9.4l-46.3-104.2h-7.6l-46.3,104.2h9.4l13.2-30.3h55L1108.6,191.1z M935.9,182.8V86.9h-8.5v104.2h66.2V183
						C993.6,182.8,935.9,182.8,935.9,182.8z M894.1,112.2C884.7,95.6,867.2,85,846.9,85c-29.9,0-54.1,22.7-54.1,54.1
						s24.2,54.1,54.1,54.1c21.6,0,40.2-11.7,48.9-30.3l-8.5-2.3c-7.4,14.6-22.5,24.2-40.4,24.2c-25.2,0-45.3-18.6-45.3-45.6
						c0-27.4,19.7-45.8,45.3-45.8c16.4,0,31,8.1,38.8,21.1L894.1,112.2z M757.4,86.9h-8.5v104.2h8.5V86.9z M658.8,182.8V86.9h-8.5
						v104.2h66.2V183C716.5,182.8,658.8,182.8,658.8,182.8z M544.5,153.1l19.3-43.8c2.2-5.4,4.7-12.1,4.7-12.1h0.2
						c0.2,0,2.5,6.7,4.7,12.1l19.1,43.8H544.5z M609.2,191.1h9.4L572.2,86.9h-7.6l-46.3,104.2h9.4l13.2-30.3h55L609.2,191.1z
						 M430.4,86.9V95h35.5v96h8.7V95.2h35.7v-8.1h-79.9L430.4,86.9L430.4,86.9z M407.1,112.5c-3.1-16.8-17.7-27.6-36.2-27.6
						c-20.6,0-35.5,11.4-35.5,27.6c0,17.8,18.4,22.9,30.3,26.3c14.6,4.3,34.3,7.6,34.3,24.9c0,12.4-10.8,21.8-28.1,21.8
						c-18.6,0-29.2-11.4-30.5-24.9l-8.1,2.2c2.2,17.1,15.9,30.5,38.4,30.5s37.3-12.6,37.3-29.7c0-20.9-20.7-26.7-35.2-30.8
						c-14.1-4-29.6-7.9-29.6-20.6c0-12.3,11.2-19.5,26.5-19.5c14.6,0,26,8.3,28.3,22.2L407.1,112.5z"/>
				</g>
			</g>
		</g>
	</g>
</g>
<g>
	<g>
		<g>
			<g>
				<g>
					<defs>
						<path id="SVGID_1_" d="M125.8,139c0,11,8.8,19.8,19.8,19.8s19.8-8.8,19.8-19.8s-8.8-19.8-19.8-19.8S125.8,128,125.8,139"/>
					</defs>
					<clipPath id="SVGID_00000116926632177305438010000014232348877273963957_">
						<use xlink:href="#SVGID_1_"  style="overflow:visible;"/>
					</clipPath>

						<linearGradient id="SVGID_00000046338519487333871180000016915445446993044615_" gradientUnits="userSpaceOnUse" x1="-3440.1516" y1="672.8658" x2="-3433.7463" y2="672.8658" gradientTransform="matrix(0 -40.8892 -40.8892 0 27658.5938 -140391.0312)">
						<stop  offset="0" style="stop-color:#114EAF"/>
						<stop  offset="0.1262" style="stop-color:#327CF3"/>
						<stop  offset="0.5015" style="stop-color:#BDD6FF"/>
						<stop  offset="0.8082" style="stop-color:#327CF3"/>
						<stop  offset="0.9426" style="stop-color:#114EAF"/>
					</linearGradient>

						<rect x="125.8" y="119.2" style="clip-path:url(#SVGID_00000116926632177305438010000014232348877273963957_);fill:url(#SVGID_00000046338519487333871180000016915445446993044615_);" width="39.7" height="39.7"/>
				</g>
			</g>
		</g>
	</g>
</g>
<g>
	<g>
		<g>
			<g>
				<g>
					<defs>
						<path id="SVGID_00000000937225537638608680000016915552124477853102_" d="M111.2,237.5c8.5-9.4,21.3-18.6,34.4-27.4
							c5.6,3.8,11,7.6,16.2,11.5c7,5.2,13.3,10.6,18.2,16c-10.8,3.8-22.4,5.8-34.4,5.8C133.6,243.2,122,241.3,111.2,237.5
							 M129.4,176c-15.7-11.9-27.9-24-27.9-37c0-12.8,12.3-25.1,27.8-36.6c5.2-3.8,10.6-7.6,16.2-11.4c1.6-1.1,3.4-2.3,5-3.4
							c3.8-2.5,7.6-5.2,11.4-7.8c5.4-3.8,10.8-7.6,15.9-11.5c7.8-6.1,14.6-12.4,19.8-19.5c31.2,18,52.1,51.7,52.1,90.3
							s-21.1,72.5-52.5,90.5c-5.2-6.9-12.1-13-19.7-19.1c-5-4-10.3-7.8-15.9-11.5c24.3-16.9,46.2-35.2,46.2-59.7
							c0-18.9-13.2-34.1-30.3-47.8c-1.6,1.3-3.4,2.3-5.2,3.6c-3.6,2.5-7.2,4.9-10.8,7.4c15.7,11.7,27.8,23.8,27.8,36.6
							c0,17.1-21.5,33-44,48.5c-1.8,1.3-3.8,2.5-5.6,3.8c-3.6,2.5-7.2,4.9-10.8,7.4c-13.7,9.6-26.7,19.5-35.3,30.7
							c-31.4-18-52.5-51.7-52.5-90.5c0-38.6,21.1-72.3,52.1-90.3c5.4,7.2,12.8,13.9,20.9,20.2c4.7,3.6,9.6,7.2,14.6,10.8
							c-5.4,3.8-10.8,7.6-15.9,11.5C96.3,105,83.1,120.1,83.1,139c0,19.1,13.2,34.3,30.5,48.1C118.8,183.4,124.2,179.6,129.4,176
							 M130.3,57.7c-7.6-5.6-14.2-11.2-19.5-17.1c10.8-3.8,22.5-5.9,34.6-5.9c12.3,0,23.8,2.2,34.6,5.9c-4.9,5.6-11.4,11-18.4,16.4
							c-5.2,3.8-10.6,7.8-16.2,11.4C140.4,64.9,135.2,61.5,130.3,57.7 M102,24.2c-5.9,2.3-11.7,5-17.1,8.1
							C47.8,53.6,22.7,93.4,22.7,139s25.1,85.5,62.2,106.7c5.4,3.1,11.2,5.8,17.1,8.1c13.5,5.2,28.3,8.1,43.6,8.1s30.1-2.9,43.6-7.9
							c5.9-2.2,11.7-5,17.1-8.1c37-21.3,62-61.3,62-106.9s-25.1-85.5-62-106.7c-5.4-3.1-11.2-5.8-17.1-8.1
							c-13.5-5.2-28.3-8.1-43.6-8.1S115.6,19,102,24.2"/>
					</defs>
					<clipPath id="SVGID_00000103227648990678952840000015771107179328484273_">
						<use xlink:href="#SVGID_00000000937225537638608680000016915552124477853102_"  style="overflow:visible;"/>
					</clipPath>

						<linearGradient id="SVGID_00000166639079346661850880000015216416058392601504_" gradientUnits="userSpaceOnUse" x1="147.4032" y1="1277.2233" x2="143.3386" y2="887.0239" gradientTransform="matrix(1 0 0 -1 0 1238.2677)">
						<stop  offset="9.091451e-02" style="stop-color:#114EAF"/>
						<stop  offset="0.1937" style="stop-color:#327CF3"/>
						<stop  offset="0.4431" style="stop-color:#BDD6FF"/>
						<stop  offset="0.6701" style="stop-color:#327CF3"/>
						<stop  offset="0.8348" style="stop-color:#114EAF"/>
					</linearGradient>

						<rect x="22.7" y="16.1" style="clip-path:url(#SVGID_00000103227648990678952840000015771107179328484273_);fill:url(#SVGID_00000166639079346661850880000015216416058392601504_);" width="245.7" height="245.7"/>
				</g>
			</g>
		</g>
	</g>
</g>
</svg>
