<svg width="22" height="23" viewBox="0 0 22 23" fill="none" xmlns="http://www.w3.org/2000/svg">
<rect width="22" height="23" rx="3" fill="#FE4105"/>
<path d="M4.99805 17.6387C5.73372 17.5605 6.20898 17.4303 6.42383 17.248C6.64518 17.0592 6.75586 16.5872 6.75586 15.832V6.93555C6.75586 6.22591 6.64844 5.76367 6.43359 5.54883C6.21875 5.32747 5.74023 5.19076 4.99805 5.13867V4.76758H15.623L15.6914 7.63867H15.1836C15.0143 6.75326 14.7604 6.18034 14.4219 5.91992C14.0833 5.65951 13.3281 5.5293 12.1562 5.5293H9.44141C9.14844 5.5293 8.96615 5.57812 8.89453 5.67578C8.82943 5.76693 8.79688 5.94271 8.79688 6.20312V10.666H11.873C12.7259 10.666 13.2695 10.5391 13.5039 10.2852C13.7383 10.0312 13.9271 9.51693 14.0703 8.74219H14.5391V13.3711H14.0703C13.9206 12.5964 13.7285 12.0853 13.4941 11.8379C13.2598 11.584 12.7194 11.457 11.873 11.457H8.79688V16.4082C8.79688 16.8053 8.92057 17.0397 9.16797 17.1113C9.42188 17.1829 10.1738 17.2188 11.4238 17.2188C12.778 17.2188 13.7773 17.0723 14.4219 16.7793C15.0664 16.4798 15.6458 15.7604 16.1602 14.6211H16.7168L15.8086 18H4.99805V17.6387Z" fill="white"/>
</svg>
