<?xml version="1.0" encoding="UTF-8" standalone="no"?>
<!DOCTYPE svg PUBLIC "-//W3C//DTD SVG 1.1//EN"
 "http://www.w3.org/Graphics/SVG/1.1/DTD/svg11.dtd">
<!-- Generated by graphviz version 10.0.1 (20240210.2158)
 -->
<!-- Title: G Pages: 1 -->
<svg width="369pt" height="522pt"
 viewBox="0.00 0.00 368.98 522.09" xmlns="http://www.w3.org/2000/svg" xmlns:xlink="http://www.w3.org/1999/xlink">
<g id="graph0" class="graph" transform="scale(1 1) rotate(0) translate(4 518.09)">
<title>G</title><style>.edge>path:hover{stroke-width:8}</style>
<polygon fill="white" stroke="none" points="-4,4 -4,-518.09 364.98,-518.09 364.98,4 -4,4"/>
<!-- src_main -->
<g id="node1" class="node">
<title>src_main</title><style>.edge>path:hover{stroke-width:8}</style>
<ellipse fill="#995252" stroke="black" cx="62.72" cy="-18" rx="31.66" ry="18"/>
<text text-anchor="middle" x="62.72" y="-14.12" font-family="Helvetica,sans-Serif" font-size="10.00" fill="#ffffff">src.main</text>
</g>
<!-- src_models -->
<g id="node2" class="node">
<title>src_models</title><style>.edge>path:hover{stroke-width:8}</style>
<ellipse fill="#bc2f2f" stroke="black" cx="149.72" cy="-329.04" rx="37.87" ry="18"/>
<text text-anchor="middle" x="149.72" y="-325.17" font-family="Helvetica,sans-Serif" font-size="10.00" fill="#ffffff">src.models</text>
</g>
<!-- src_routes -->
<g id="node3" class="node">
<title>src_routes</title><style>.edge>path:hover{stroke-width:8}</style>
<ellipse fill="#964040" stroke="black" cx="62.72" cy="-90" rx="35.21" ry="18"/>
<text text-anchor="middle" x="62.72" y="-86.12" font-family="Helvetica,sans-Serif" font-size="10.00" fill="#ffffff">src.routes</text>
</g>
<!-- src_models&#45;&gt;src_routes -->
<g id="edge1" class="edge">
<title>src_models&#45;&gt;src_routes</title><style>.edge>path:hover{stroke-width:8}</style>
<path fill="none" stroke="black" d="M100.72,-161C93.74,-146.32 85.16,-130.36 77.92,-117.39"/>
<polygon fill="#bc2f2f" stroke="black" points="81.16,-116.02 73.2,-109.03 75.07,-119.46 81.16,-116.02"/>
<path fill="none" stroke="black" d="M138.42,-311.58C131.99,-301.46 124.33,-287.99 119.72,-275.04 102.81,-227.45 122.41,-208.62 100.72,-163"/>
</g>
<!-- src_schemas -->
<g id="node4" class="node">
<title>src_schemas</title><style>.edge>path:hover{stroke-width:8}</style>
<ellipse fill="#c04040" stroke="black" cx="171.72" cy="-245.52" rx="42.75" ry="18"/>
<text text-anchor="middle" x="171.72" y="-241.65" font-family="Helvetica,sans-Serif" font-size="10.00" fill="#ffffff">src.schemas</text>
</g>
<!-- src_models&#45;&gt;src_schemas -->
<g id="edge2" class="edge">
<title>src_models&#45;&gt;src_schemas</title><style>.edge>path:hover{stroke-width:8}</style>
<path fill="none" stroke="black" d="M154.39,-310.75C157.22,-300.27 160.9,-286.64 164.14,-274.64"/>
<polygon fill="#bc2f2f" stroke="black" points="167.44,-275.81 166.67,-265.25 160.69,-273.99 167.44,-275.81"/>
</g>
<!-- src_services -->
<g id="node5" class="node">
<title>src_services</title><style>.edge>path:hover{stroke-width:8}</style>
<ellipse fill="#ac4949" stroke="black" cx="170.72" cy="-162" rx="40.97" ry="18"/>
<text text-anchor="middle" x="170.72" y="-158.12" font-family="Helvetica,sans-Serif" font-size="10.00" fill="#ffffff">src.services</text>
</g>
<!-- src_models&#45;&gt;src_services -->
<g id="edge3" class="edge">
<title>src_models&#45;&gt;src_services</title><style>.edge>path:hover{stroke-width:8}</style>
<path fill="none" stroke="black" d="M177.16,-316.43C193.93,-307.72 213.97,-294.02 223.72,-275.04 235.72,-251.7 233.77,-240.24 223.72,-216 218.86,-204.25 209.98,-193.74 200.86,-185.25"/>
<polygon fill="#bc2f2f" stroke="black" points="203.17,-182.62 193.32,-178.73 198.6,-187.91 203.17,-182.62"/>
</g>
<!-- src_routes&#45;&gt;src_main -->
<g id="edge4" class="edge">
<title>src_routes&#45;&gt;src_main</title><style>.edge>path:hover{stroke-width:8}</style>
<path fill="none" stroke="black" d="M62.72,-71.7C62.72,-64.41 62.72,-55.73 62.72,-47.54"/>
<polygon fill="#964040" stroke="black" points="66.22,-47.62 62.72,-37.62 59.22,-47.62 66.22,-47.62"/>
</g>
<!-- src_schemas&#45;&gt;src_routes -->
<g id="edge5" class="edge">
<title>src_schemas&#45;&gt;src_routes</title><style>.edge>path:hover{stroke-width:8}</style>
<path fill="none" stroke="black" d="M153.44,-229.03C136.91,-213.93 113.29,-189.44 100.72,-163"/>
</g>
<!-- src_schemas&#45;&gt;src_services -->
<g id="edge6" class="edge">
<title>src_schemas&#45;&gt;src_services</title><style>.edge>path:hover{stroke-width:8}</style>
<path fill="none" stroke="black" d="M171.51,-227.23C171.39,-216.86 171.22,-203.4 171.07,-191.49"/>
<polygon fill="#c04040" stroke="black" points="174.58,-191.73 170.95,-181.78 167.58,-191.82 174.58,-191.73"/>
</g>
<!-- src_services&#45;&gt;src_routes -->
<g id="edge7" class="edge">
<title>src_services&#45;&gt;src_routes</title><style>.edge>path:hover{stroke-width:8}</style>
<path fill="none" stroke="black" d="M148.35,-146.5C132.39,-136.16 110.76,-122.13 93.23,-110.77"/>
<polygon fill="#ac4949" stroke="black" points="95.54,-108.1 85.24,-105.59 91.73,-113.97 95.54,-108.1"/>
</g>
<!-- src_utils -->
<g id="node6" class="node">
<title>src_utils</title><style>.edge>path:hover{stroke-width:8}</style>
<ellipse fill="#ce3b3b" stroke="black" cx="87.72" cy="-401.04" rx="29.88" ry="18"/>
<text text-anchor="middle" x="87.72" y="-397.17" font-family="Helvetica,sans-Serif" font-size="10.00" fill="#ffffff">src.utils</text>
</g>
<!-- src_utils&#45;&gt;src_main -->
<g id="edge8" class="edge">
<title>src_utils&#45;&gt;src_main</title><style>.edge>path:hover{stroke-width:8}</style>
<path fill="none" stroke="black" d="M87.09,-382.61C85.4,-343.12 79.67,-244.01 62.72,-163"/>
<path fill="none" stroke="black" d="M62.72,-161C53.99,-131.66 29.12,-136.8 18.72,-108 13.29,-92.95 13.29,-87.05 18.72,-72 22.76,-60.81 30.3,-50.32 38.02,-41.67"/>
<polygon fill="#ce3b3b" stroke="black" points="40.53,-44.1 44.93,-34.46 35.48,-39.26 40.53,-44.1"/>
</g>
<!-- src_utils&#45;&gt;src_models -->
<g id="edge9" class="edge">
<title>src_utils&#45;&gt;src_models</title><style>.edge>path:hover{stroke-width:8}</style>
<path fill="none" stroke="black" d="M101.18,-384.85C109,-376.02 119.05,-364.68 127.97,-354.61"/>
<polygon fill="#ce3b3b" stroke="black" points="130.42,-357.12 134.43,-347.31 125.18,-352.48 130.42,-357.12"/>
</g>
<!-- src_utils&#45;&gt;src_routes -->
<g id="edge10" class="edge">
<title>src_utils&#45;&gt;src_routes</title><style>.edge>path:hover{stroke-width:8}</style>
<path fill="none" stroke="black" d="M62.72,-161C59.93,-147.66 59.59,-132.57 60.08,-119.83"/>
<polygon fill="#ce3b3b" stroke="black" points="63.57,-120.16 60.67,-109.97 56.58,-119.75 63.57,-120.16"/>
</g>
<!-- src_utils_csv_loader -->
<g id="node7" class="node">
<title>src_utils_csv_loader</title><style>.edge>path:hover{stroke-width:8}</style>
<ellipse fill="#b65353" stroke="black" cx="44.72" cy="-484.57" rx="44.72" ry="29.52"/>
<text text-anchor="middle" x="44.72" y="-491.94" font-family="Helvetica,sans-Serif" font-size="10.00" fill="#ffffff">src.</text>
<text text-anchor="middle" x="44.72" y="-480.69" font-family="Helvetica,sans-Serif" font-size="10.00" fill="#ffffff">utils.</text>
<text text-anchor="middle" x="44.72" y="-469.44" font-family="Helvetica,sans-Serif" font-size="10.00" fill="#ffffff">csv_loader</text>
</g>
<!-- src_utils_csv_loader&#45;&gt;src_models -->
<g id="edge11" class="edge">
<title>src_utils_csv_loader&#45;&gt;src_models</title><style>.edge>path:hover{stroke-width:8}</style>
<path fill="none" stroke="black" d="M149.72,-400.04C153.52,-386.86 153.97,-371.69 153.29,-358.84"/>
<polygon fill="#b65353" stroke="black" points="156.78,-358.58 152.48,-348.9 149.8,-359.15 156.78,-358.58"/>
<path fill="none" stroke="black" d="M77.71,-464.06C106.6,-446 144.72,-419.4 149.72,-402.04"/>
</g>
<!-- src_utils_hcirc_utils -->
<g id="node8" class="node">
<title>src_utils_hcirc_utils</title><style>.edge>path:hover{stroke-width:8}</style>
<ellipse fill="#b65353" stroke="black" cx="149.72" cy="-484.57" rx="42.6" ry="29.52"/>
<text text-anchor="middle" x="149.72" y="-491.94" font-family="Helvetica,sans-Serif" font-size="10.00" fill="#ffffff">src.</text>
<text text-anchor="middle" x="149.72" y="-480.69" font-family="Helvetica,sans-Serif" font-size="10.00" fill="#ffffff">utils.</text>
<text text-anchor="middle" x="149.72" y="-469.44" font-family="Helvetica,sans-Serif" font-size="10.00" fill="#ffffff">hcirc_utils</text>
</g>
<!-- src_utils_hcirc_utils&#45;&gt;src_models -->
<g id="edge12" class="edge">
<title>src_utils_hcirc_utils&#45;&gt;src_models</title><style>.edge>path:hover{stroke-width:8}</style>
<path fill="none" stroke="black" d="M145.88,-454.73C144.71,-438.88 144.83,-419.04 149.72,-402.04"/>
</g>
<!-- src_utils_rate_limiter -->
<g id="node9" class="node">
<title>src_utils_rate_limiter</title><style>.edge>path:hover{stroke-width:8}</style>
<ellipse fill="#c24747" stroke="black" cx="315.72" cy="-245.52" rx="45.25" ry="29.52"/>
<text text-anchor="middle" x="315.72" y="-252.9" font-family="Helvetica,sans-Serif" font-size="10.00" fill="#ffffff">src.</text>
<text text-anchor="middle" x="315.72" y="-241.65" font-family="Helvetica,sans-Serif" font-size="10.00" fill="#ffffff">utils.</text>
<text text-anchor="middle" x="315.72" y="-230.4" font-family="Helvetica,sans-Serif" font-size="10.00" fill="#ffffff">rate_limiter</text>
</g>
<!-- src_utils_rate_limiter&#45;&gt;src_main -->
<g id="edge13" class="edge">
<title>src_utils_rate_limiter&#45;&gt;src_main</title><style>.edge>path:hover{stroke-width:8}</style>
<path fill="none" stroke="black" d="M239.72,-161C190.21,-114.15 126.76,-65.76 90.84,-39.31"/>
<polygon fill="#c24747" stroke="black" points="93.26,-36.74 83.12,-33.66 89.12,-42.39 93.26,-36.74"/>
</g>
<!-- src_utils_rate_limiter&#45;&gt;src_routes -->
<g id="edge14" class="edge">
<title>src_utils_rate_limiter&#45;&gt;src_routes</title><style>.edge>path:hover{stroke-width:8}</style>
<path fill="none" stroke="black" d="M293.88,-219.5C279.09,-202.96 258.84,-181.09 239.72,-163"/>
<path fill="none" stroke="black" d="M239.72,-161C231.49,-153.21 230.52,-149.7 220.72,-144 184.59,-122.99 138.92,-108.81 105.99,-100.45"/>
<polygon fill="#c24747" stroke="black" points="106.92,-97.07 96.38,-98.09 105.26,-103.87 106.92,-97.07"/>
</g>
</g>
</svg>
